Coordinates
version=1
nRows=9
nColumns=63
inDegrees=yes

Units are S.I. units (second, meters, Newtons, ...)
If the header above contains a line with 'inDegrees', this indicates whether rotational values are in degrees (yes) or radians (no).

endheader
time	pelvis_tilt	pelvis_list	pelvis_rotation	pelvis_tx	pelvis_ty	pelvis_tz	hip_flexion_r	hip_adduction_r	hip_rotation_r	knee_angle_r	knee_angle_r_beta	ankle_angle_r	subtalar_angle_r	mtp_angle_r	hip_flexion_l	hip_adduction_l	hip_rotation_l	knee_angle_l	knee_angle_l_beta	ankle_angle_l	subtalar_angle_l	mtp_angle_l	L5_S1_Flex_Ext	L5_S1_Lat_Bending	L5_S1_axial_rotation	L4_L5_Flex_Ext	L4_L5_Lat_Bending	L4_L5_axial_rotation	L3_L4_Flex_Ext	L3_L4_Lat_Bending	L3_L4_axial_rotation	L2_L3_Flex_Ext	L2_L3_Lat_Bending	L2_L3_axial_rotation	L1_L2_Flex_Ext	L1_L2_Lat_Bending	L1_L2_axial_rotation	L1_T12_Flex_Ext	L1_T12_Lat_Bending	L1_T12_axial_rotation	Abs_r3	Abs_r2	Abs_r1	Abs_t1	Abs_t2	neck_flexion	neck_bending	neck_rotation	arm_flex_r	arm_add_r	arm_rot_r	elbow_flex_r	pro_sup_r	wrist_flex_r	wrist_dev_r	arm_flex_l	arm_add_l	arm_rot_l	elbow_flex_l	pro_sup_l	wrist_flex_l	wrist_dev_l
      1.20689655	     -6.88987569	     -4.38043122	     98.91686448	      0.07381041	      0.45627383	      0.84364538	      4.61588832	     -3.71388698	    -11.34270239	      6.05437519	      0.10566878	     31.36570160	     13.59190969	      0.00000000	      7.39830382	      3.45541089	     -0.04860307	      9.38509521	      0.16380081	     26.72657322	      4.04584623	      0.00000000	      0.08245654	     -0.95258363	     -1.12923359	      0.15313003	     -1.26693622	     -1.19981069	      0.13546784	     -2.31611183	     -1.19981069	      0.09423957	     -2.31611183	     -0.98807939	      0.07656914	     -1.94250853	     -0.91750229	      0.04711566	     -1.47555204	     -0.84692519	      0.58897879	    -10.77581651	     -6.28045845	      0.00000000	      0.00000000	      4.79350963	      4.85389556	     -8.30407506	     49.87387638	    -45.47249190	     29.62337063	    141.53428297	     86.01738316	     21.71138619	     14.71678747	      3.15931697	    -11.43487020	     31.33120766	     75.06447605	     88.18964836	     14.87594524	     17.35701037
      1.22413793	     -6.84248495	     -4.32069263	     98.91989001	      0.07323703	      0.45634433	      0.84331862	      4.58368334	     -3.70396271	    -11.48727354	      6.18038941	      0.10786814	     31.39473302	     13.72269900	      0.00000000	      7.24568679	      3.42106239	     -0.32710573	      9.16822657	      0.16001574	     26.79118537	      4.33371648	      0.00000000	      0.06013223	     -0.91428310	     -1.34661671	      0.11167156	     -1.21599652	     -1.43078026	      0.09879124	     -2.22298792	     -1.43078026	      0.06872512	     -2.22298792	     -1.17828962	      0.05583879	     -1.86440609	     -1.09412608	      0.03435955	     -1.41622452	     -1.00996253	      0.42951849	    -10.34255323	     -7.48947816	      0.00000000	      0.00000000	      4.66744469	      4.38745859	     -6.30302543	     54.46202222	    -43.45168343	     32.14707730	    142.80979571	     81.16632641	     18.71132085	     12.03507038	      1.91394727	    -11.22411470	     29.23071354	     76.30705755	     88.09252979	     14.63159299	     19.11568990
      1.24137931	     -6.68237430	     -4.47049454	     99.07779778	      0.07255526	      0.45597379	      0.84333827	      4.73837988	     -3.60627220	    -11.86825717	      6.18887770	      0.10801629	     31.36460951	     13.97829582	      0.00000000	      7.37240621	      3.30285111	     -0.56872870	      8.98720953	      0.15685640	     26.95479462	      4.85932516	      0.00000000	      0.05735352	     -0.87782069	     -1.48249622	      0.10651122	     -1.16750152	     -1.57515224	      0.09422609	     -2.13433323	     -1.57515224	      0.06554933	     -2.13433323	     -1.29718420	      0.05325848	     -1.79005196	     -1.20452818	      0.03277180	     -1.35974425	     -1.11187217	      0.40967043	     -9.93008324	     -8.24519925	      0.00000000	      0.00000000	      5.04822246	      4.26326522	     -5.35295141	     57.67568074	    -41.57859247	     32.48757355	    144.20551815	     73.29735103	     16.66699974	     14.30718584	      1.33380057	    -11.07704743	     28.16404442	     76.92515805	     87.95618789	     15.20114350	     19.88489561
      1.25862069	     -6.57218430	     -4.63401328	     99.06282912	      0.07237795	      0.45566620	      0.84335868	      4.93919323	     -3.52492564	    -11.90957373	      6.20862959	      0.10836103	     31.23709433	     13.97703360	      0.00000000	      7.40569463	      3.22942197	     -0.52799106	      8.63577991	      0.15072279	     26.94564397	      4.95933807	      0.00000000	      0.05942239	     -0.86139194	     -1.51234345	      0.11035331	     -1.14565129	     -1.60686491	      0.09762504	     -2.09438837	     -1.60686491	      0.06791384	     -2.09438837	     -1.32330052	      0.05517963	     -1.75655045	     -1.22877905	      0.03395395	     -1.33429612	     -1.13425758	      0.42444816	     -9.74423795	     -8.41120054	      0.00000000	      0.00000000	      5.46275217	      4.08996876	     -5.47873766	     59.48009405	    -39.92994900	     30.86046744	    144.80812502	     72.09318428	     16.01101376	     13.96402250	      1.15020094	    -11.13241435	     27.96259353	     77.30045764	     87.84416105	     15.15378230	     19.93861759
      1.27586207	     -6.48714619	     -4.70022575	     99.33727224	      0.07137355	      0.45534244	      0.84340573	      4.96093092	     -3.50334328	    -12.21878953	      6.20461345	      0.10829093	     31.21904129	     13.96244128	      0.00000000	      7.37314427	      3.23005926	     -0.30788092	      8.38331435	      0.14631644	     26.95142714	      5.12659666	      0.00000000	      0.05556182	     -0.83453814	     -1.62367139	      0.10318386	     -1.10993573	     -1.72515085	      0.09128252	     -2.02909604	     -1.72515085	      0.06350161	     -2.02909604	     -1.42071246	      0.05159471	     -1.70179018	     -1.31923300	      0.03174803	     -1.29269958	     -1.21775354	      0.39687254	     -9.44046239	     -9.03037315	      0.00000000	      0.00000000	      5.64673238	      3.78734832	     -4.80647524	     61.79336463	    -38.49866649	     30.38120995	    144.41080474	     64.16446607	     15.10062659	     16.68325566	      0.69906096	    -10.91344700	     27.27745418	     77.83112476	     87.84750502	     14.64687511	     20.58518396
      1.29310345	     -6.45886521	     -4.80126124	     99.39719532	      0.07077355	      0.45506015	      0.84347168	      5.02788768	     -3.51760980	    -12.28242940	      6.16346573	      0.10757277	     31.18116091	     13.92334293	      0.00000000	      7.41387945	      3.26206208	     -0.24084842	      8.27347942	      0.14439946	     26.91395983	      5.18248568	      0.00000000	      0.06843206	     -0.82753309	     -1.60322056	      0.12708518	     -1.10061901	     -1.70342185	      0.11242703	     -2.01206396	     -1.70342185	      0.07821100	     -2.01206396	     -1.40281799	      0.06354601	     -1.68750548	     -1.30261671	      0.03910208	     -1.28184876	     -1.20241542	      0.48880335	     -9.36121983	     -8.91663179	      0.00000000	      0.00000000	      5.53760390	      3.83459107	     -4.92283539	     63.00119612	    -37.84467460	     28.92915619	    143.90468345	     64.02324255	     14.66153127	     16.58246521	      0.75013108	    -10.79228664	     27.35915192	     77.86032917	     87.84629011	     14.64824943	     20.55146368
      1.31034483	     -6.30900843	     -4.71529154	     99.43177482	      0.07061290	      0.45503478	      0.84381976	      5.02248800	     -3.37295071	    -12.31495570	      6.28953821	      0.10977315	     31.16537383	     13.92339329	      0.00000000	      7.25088964	      3.10637139	     -0.11395832	      8.09478483	      0.14128065	     26.77765619	      5.20534808	      0.00000000	      0.05355594	     -0.80968929	     -1.62112396	      0.09945874	     -1.07688676	     -1.72244421	      0.08798706	     -1.96867855	     -1.72244421	      0.06120909	     -1.96867855	     -1.41848347	      0.04973205	     -1.65111840	     -1.31716322	      0.03060187	     -1.25420871	     -1.21584297	      0.38254475	     -9.15936721	     -9.01620513	      0.00000000	      0.00000000	      5.64870403	      3.77642789	     -5.10679866	     63.69900194	    -36.80434959	     27.58309607	    143.12905542	     63.82637455	     14.06511223	     16.95206970	      0.88377060	    -10.78026409	     27.46369453	     77.85406480	     87.88663543	     14.56695332	     20.50643087
      1.32758621	     -6.38843244	     -4.53280273	     99.55567186	      0.07020895	      0.45514119	      0.84386578	      4.79741706	     -3.45859804	    -12.53518172	      6.31191176	      0.11016364	     31.28075346	     14.00786047	      0.00000000	      6.83070606	      3.22013332	      0.50413181	      7.73895134	      0.13507018	     26.38358676	      4.70937132	      0.00000000	      0.02702999	     -0.81457789	     -1.66456463	      0.05019740	     -1.08338859	     -1.76859991	      0.04440758	     -1.98056468	     -1.76859991	      0.03089258	     -1.98056468	     -1.45649405	      0.02510005	     -1.66108723	     -1.35245876	      0.01544494	     -1.26178115	     -1.24842347	      0.19307254	     -9.21466801	     -9.25780908	      0.00000000	      0.00000000	      5.48684549	      3.72242737	     -4.86133148	     64.40386229	    -35.86981498	     26.47770374	    142.81313971	     63.03691561	     12.67098322	     19.99317023	      0.79232370	    -10.79616506	     27.42745926	     78.06924884	     87.94070735	     13.83794044	     20.35719935
      1.34482759	     -6.27733156	     -4.50567814	     99.36502067	      0.06990707	      0.45498771	      0.84397589	      4.86555410	     -3.38563455	    -12.57147316	      6.39510114	      0.11161557	     31.34483164	     14.34485558	      0.00000000	      6.61317927	      3.30104984	      3.06318901	      7.42017586	      0.12950650	     25.52186602	      0.90574402	      0.00000000	      0.03771857	     -0.79889596	     -1.63994590	      0.07004715	     -1.06253162	     -1.74244252	      0.06196784	     -1.94243563	     -1.74244252	      0.04310855	     -1.94243563	     -1.43495266	      0.03502546	     -1.62910864	     -1.33245604	      0.02155239	     -1.23748984	     -1.22995943	      0.26941997	     -9.03727085	     -9.12088712	      0.00000000	      0.00000000	      5.11688920	      3.90241819	     -4.78157476	     64.84845226	    -35.36406440	     25.87802668	    142.24710265	     62.30829295	     11.48904219	     21.07016759	      0.85887009	    -10.70792395	     27.61614742	     78.01021065	     87.95298586	     13.44495487	     20.30698976
